# xmcd
#
# Track frame offsets:
# 150
# 17107
# 34757
# 49260
# 69553
# 89834
# 108936
# 126363
# 145991
# 166440
# 184208
#
# Disc length: 2667 seconds
#
#
# Revision: 0
# Processed by: cddbd v1.5.1PL2 Copyright (c) Steve Scherf et al.
# Submitted via: FreeRIP 2.944 
#
DISCID=a20a690b
DTITLE=Miguel Bicca - Paleteando
DYEAR=2005
DGENRE=Nativista
TTITLE0=Paleteando
TTITLE1=Então... Vai Ser do Seu Jeito
TTITLE2=Águas de Rio
TTITLE3=Romance Das Duas Estrelas
TTITLE4=Saudade de Pai
TTITLE5=Tropeada
TTITLE6=Para Quem Perdeu Seus Remos
TTITLE7=Desengano
TTITLE8=João da Chalana
TTITLE9=Olhando Por Cima do Ombro
TTITLE10=Antigos
EXTD=Sem Comentários
EXTT0=
EXTT1=
EXTT2=
EXTT3=
EXTT4=
EXTT5=
EXTT6=
EXTT7=
EXTT8=
EXTT9=
EXTT10=
PLAYORDER=
